# xmcd CD database file
#
# Track frame offsets:
#	187
#	9272
#	34447
#	50867
#	69207
#	99805
#	121370
#	160795
#	178705
#	212835
#	233942
#	253537
#	275367
#
# Disc length: 4137 seconds
#
# Revision: 6
# Processed by: cddbd v1.5PL3 Copyright (c) Steve Scherf et al.
# Submitted via: CDex 1.51
#
DISCID=ad10270d
DTITLE=RUNNING WILD - The Rivalry
DYEAR=1998
DGENRE=Metal
TTITLE0=March Of The Final Battle (The End Of All Evil)
TTITLE1=The Rivalry
TTITLE2=Kiss Of Death
TTITLE3=Firebreather
TTITLE4=Return Of The Dragon
TTITLE5=Resurrection
TTITLE6=Ballad Of William Kidd
TTITLE7=Agents Of Black
TTITLE8=Fire and Thunder
TTITLE9=The Poison
TTITLE10=Adventure Galley
TTITLE11=Man On The Moon
TTITLE12=War and Peace
EXTD=YEAR: 1998
EXTT0=
EXTT1=
EXTT2=
EXTT3=
EXTT4=
EXTT5=
EXTT6=
EXTT7=
EXTT8=
EXTT9=
EXTT10=
EXTT11=
EXTT12=
PLAYORDER=
